<svg xmlns="http://www.w3.org/2000/svg" viewBox="0 0 1122 1122">
  <defs>
    <linearGradient id="a" x1="20.5" y1="1017.5" x2="639" y2="399" gradientTransform="matrix(1 0 0 -1 0 1122)" gradientUnits="userSpaceOnUse">
      <stop offset="0" stop-color="#32469d"/>
      <stop offset=".2" stop-color="#2f4999"/>
      <stop offset=".5" stop-color="#29558e"/>
      <stop offset=".7" stop-color="#1d687b"/>
      <stop offset=".9" stop-color="#0e8261"/>
      <stop offset="1" stop-color="#049450"/>
    </linearGradient>
    <linearGradient id="b" x1="1089" y1="75" x2="470.5" y2="693.5" gradientTransform="matrix(1 0 0 -1 0 1122)" gradientUnits="userSpaceOnUse">
      <stop offset="0" stop-color="#32469d"/>
      <stop offset=".2" stop-color="#2f4999"/>
      <stop offset=".5" stop-color="#29558e"/>
      <stop offset=".7" stop-color="#1d687b"/>
      <stop offset=".9" stop-color="#0e8261"/>
      <stop offset="1" stop-color="#049450"/>
    </linearGradient>
  </defs>
  <path d="M104 21h526v46.4L136.7 718h181.5c82.4 0 145.1-13.8 188.3-41.3s81.7-77.9 115.6-151l49.9 16.8L585 777H0v-45.9L493.7 80H336.8c-52.7 0-94.4 5.1-125 15.2-30.7 10.1-57.6 26-80.6 47.5C108.1 164.3 83.9 198 58.7 244l-46.5-23z" style="fill:url(#a)"/>
  <path d="M554 345h526v46.4L586.7 1042h181.5c82.4 0 145.1-13.8 188.3-41.3s81.7-77.9 115.6-151l49.9 16.8-87 234.5H450v-45.9L943.7 404h-157c-52.7 0-94.4 5.1-125 15.2-30.7 10.1-57.5 26-80.6 47.5S533.8 522 508.6 568l-46.5-23 92-200Z" style="fill:url(#b)"/>
</svg>